<?xml version="1.0" standalone="no"?>
<!DOCTYPE svg PUBLIC "-//W3C//DTD SVG 1.1//EN" "http://www.w3.org/Graphics/SVG/1.1/DTD/svg11.dtd" >
<svg xmlns="http://www.w3.org/2000/svg" xmlns:xlink="http://www.w3.org/1999/xlink" version="1.1">
<metadata>
Created by FontForge 20170731 at Sat Sep 24 12:18:31 2022
 By Aleksey,,,
</metadata>
<defs>
<font id="icomoon" horiz-adv-x="1024" >
  <font-face 
    font-family="icomoon"
    font-weight="400"
    font-stretch="normal"
    units-per-em="1024"
    panose-1="0 0 0 0 0 0 0 0 0 0"
    ascent="960"
    descent="-64"
    bbox="-7 -64.4545 1147.84 965"
    underline-thickness="0"
    underline-position="0"
    unicode-range="U+0001-FFFD"
  />
<missing-glyph 
 />
    <glyph glyph-name=".notdef" unicode="&#xfffd;" 
 />
    <glyph glyph-name="glyph1" horiz-adv-x="0" 
d="M0 0v0v0v0z" />
    <glyph glyph-name="glyph1" horiz-adv-x="0" 
d="M0 0v0v0v0z" />
    <glyph glyph-name="nonmarkingreturn" horiz-adv-x="341" 
 />
    <glyph glyph-name="uni0001" horiz-adv-x="0" 
d="M0 0v0v0v0z" />
    <glyph glyph-name="space" unicode=" " horiz-adv-x="512" 
d="M0 0v0v0v0z" />
    <glyph glyph-name="uniE900" unicode="&#xe900;" horiz-adv-x="896" 
d="M256 960q27 0 45.5 -18.5t18.5 -45.5v-64h256v64q0 27 18.5 45.5t45.5 18.5t45.5 -18.5t18.5 -45.5v-64h96q40 0 68 -28t28 -68v-96h-896v96q0 40 28 68t68 28h96v64q0 27 18.5 45.5t45.5 18.5zM0 576h896v-544q0 -40 -28 -68t-68 -28h-704q-40 0 -68 28t-28 68v544z
M128 416v-64q0 -13 9.5 -22.5t22.5 -9.5h64q13 0 22.5 9.5t9.5 22.5v64q0 13 -9.5 22.5t-22.5 9.5h-64q-13 0 -22.5 -9.5t-9.5 -22.5zM384 416v-64q0 -13 9.5 -22.5t22.5 -9.5h64q13 0 22.5 9.5t9.5 22.5v64q0 13 -9.5 22.5t-22.5 9.5h-64q-13 0 -22.5 -9.5t-9.5 -22.5z
M672 448q-13 0 -22.5 -9.5t-9.5 -22.5v-64q0 -13 9.5 -22.5t22.5 -9.5h64q13 0 22.5 9.5t9.5 22.5v64q0 13 -9.5 22.5t-22.5 9.5h-64zM128 160v-64q0 -13 9.5 -22.5t22.5 -9.5h64q13 0 22.5 9.5t9.5 22.5v64q0 13 -9.5 22.5t-22.5 9.5h-64q-13 0 -22.5 -9.5t-9.5 -22.5z
M416 192q-13 0 -22.5 -9.5t-9.5 -22.5v-64q0 -13 9.5 -22.5t22.5 -9.5h64q13 0 22.5 9.5t9.5 22.5v64q0 13 -9.5 22.5t-22.5 9.5h-64zM640 160v-64q0 -13 9.5 -22.5t22.5 -9.5h64q13 0 22.5 9.5t9.5 22.5v64q0 13 -9.5 22.5t-22.5 9.5h-64q-13 0 -22.5 -9.5t-9.5 -22.5z" />
    <glyph glyph-name="uniE901" unicode="&#xe901;" 
d="M538 789l-67 -68l72 -72q41 -42 60 -53t32 2q11 12 8.5 23t-20.5 32q-23 25 -17.5 29.5t63.5 4.5q32 0 60 -6.5t36 -15.5q7 -9 14 -42.5t9 -72.5q3 -52 10 -72.5t21 -20.5t21 22.5t10 82.5q4 72 -2.5 97t-35.5 54q-25 25 -51 33.5t-80 8.5q-65 0 -73.5 4t13.5 29
q22 23 20 46.5t-25 23.5q-5 0 -28.5 -20.5t-49.5 -48.5v0zM186 740q-37 -37 -45 -83q-8 -47 14 -103.5t75 -124.5q52 -68 135 -148q80 -78 144 -126q65 -48 118.5 -67.5t96.5 -10.5t80 45q20 21 34.5 43t14.5 32t-28.5 33.5t-68.5 46.5q-70 40 -90.5 44t-63.5 -16
q-42 -21 -57.5 -18t-58.5 35q-23 18 -52.5 47.5t-47.5 52.5q-32 43 -35 58.5t18 57.5q20 43 16 63.5t-44 90.5q-23 40 -46.5 68.5t-33.5 28.5t-32 -14.5t-43 -34.5v0z" />
    <glyph glyph-name="uniE902" unicode="&#xe902;" horiz-adv-x="1152" 
d="M48 960q-20 0 -34 -14t-14 -34t14 -34t34 -14h104l121 -633q3 -17 16.5 -28t30.5 -11h656q20 0 34 14t14 34t-14 34t-34 14h-616l-18 96h634q21 0 38 13t23 34l108 384q9 30 -10.5 55.5t-50.5 25.5h-840l-5 25q-3 17 -16.5 28t-30.5 11h-144v0zM352 -64q40 0 68 28t28 68
t-28 68t-68 28t-68 -28t-28 -68t28 -68t68 -28zM1024 32q0 40 -28 68t-68 28t-68 -28t-28 -68t28 -68t68 -28t68 28t28 68z" />
    <glyph glyph-name="uniE903" unicode="&#xe903;" 
d="M313 789h-114q-12 0 -20 -8t-8 -20v-114q0 -12 8 -20t20 -8h114q12 0 20 8t8 20v114q0 12 -8 20t-20 8zM313 533h-114q-12 0 -20 -8t-8 -20v-114q0 -12 8 -20t20 -8h114q12 0 20 8t8 20v114q0 12 -8 20t-20 8v0zM313 277h-114q-12 0 -20 -8t-8 -20v-114q0 -12 8 -20
t20 -8h114q12 0 20 8t8 20v114q0 12 -8 20t-20 8zM569 789h-114q-12 0 -20 -8t-8 -20v-114q0 -12 8 -20t20 -8h114q12 0 20 8t8 20v114q0 12 -8 20t-20 8zM569 533h-114q-12 0 -20 -8t-8 -20v-114q0 -12 8 -20t20 -8h114q12 0 20 8t8 20v114q0 12 -8 20t-20 8v0zM569 277
h-114q-12 0 -20 -8t-8 -20v-114q0 -12 8 -20t20 -8h114q12 0 20 8t8 20v114q0 12 -8 20t-20 8zM825 789h-114q-12 0 -20 -8t-8 -20v-114q0 -12 8 -20t20 -8h114q12 0 20 8t8 20v114q0 12 -8 20t-20 8zM825 533h-114q-12 0 -20 -8t-8 -20v-114q0 -12 8 -20t20 -8h114
q12 0 20 8t8 20v114q0 12 -8 20t-20 8v0zM825 277h-114q-12 0 -20 -8t-8 -20v-114q0 -12 8 -20t20 -8h114q12 0 20 8t8 20v114q0 12 -8 20t-20 8z" />
    <glyph glyph-name="uniE904" unicode="&#xe904;" horiz-adv-x="640" 
d="M448 0q-12 0 -24 4.5t-21 14.5l-384 384q-19 18 -19 44.5t19 45.5l384 384q19 19 45.5 19t44.5 -19q19 -18 19 -44.5t-19 -45.5l-338 -339l338 -339q19 -19 19 -45.5t-19 -44.5q-9 -10 -21 -14.5t-24 -4.5z" />
    <glyph glyph-name="uniE905" unicode="&#xe905;" horiz-adv-x="640" 
d="M192 0q-12 0 -24 4.5t-21 14.5q-19 18 -19 44.5t19 45.5l339 339l-339 339q-19 18 -19 44.5t19 45.5t45.5 19t44.5 -19l384 -384q19 -19 19 -45.5t-19 -44.5l-384 -384q-9 -10 -21 -14.5t-24 -4.5z" />
    <glyph glyph-name="uniE906" unicode="&#xe906;" horiz-adv-x="640" 
d="M415 448l216 215q9 10 9 23t-9 23l-50 50q-10 9 -23 9t-23 -9l-215 -216l-215 216q-10 9 -23 9t-23 -9l-50 -50q-9 -10 -9 -23t9 -23l216 -215l-216 -215q-9 -10 -9 -23t9 -23l50 -50q10 -9 23 -9t23 9l215 216l215 -216q10 -9 23 -9t23 9l50 50q9 10 9 23t-9 23
l-216 215v0z" />
    <glyph glyph-name="uniE907" unicode="&#xe907;" horiz-adv-x="896" 
d="M800 896h-704q-40 0 -68 -28t-28 -68v0v-704q0 -40 28 -68t68 -28v0h274v305h-125v143h125v109q0 94 51.5 143.5t136.5 49.5q41 0 76 -4.5l35 -4.5v-122h-63q-46 0 -63 -24t-17 -54v-93h137l-22 -143h-115v-305h274q40 0 68 28t28 68v0v704q0 40 -28 68t-68 28v0z" />
    <glyph glyph-name="uniE908" unicode="&#xe908;" horiz-adv-x="1170" 
d="M585 81q-85 48 -151 96q-67 48 -117.5 94.5t-86.5 91.5q-36 44 -59 86q-47 86 -48 157t26 123q27 53 75 86q49 34 106 41t115 -16q59 -23 106 -82l34 -44l35 44q46 59 105 82q58 23 115 16t106 -41q48 -33 75 -86q27 -52 26 -123t-48 -157q-23 -42 -59 -86
q-35 -45 -86 -91.5t-117 -94.5q-67 -48 -152 -96v0zM585 851q-64 61 -139 82q-75 20 -147 6.5t-133 -58.5q-61 -44 -95 -112q-19 -37 -28 -79q-10 -42 -7.5 -88t16.5 -95t42 -100q28 -50 70 -102t100 -104.5t132 -104.5q75 -52 168 -104l21 -11l21 11q93 52 168 104
t132.5 104.5t99.5 104.5t70 102q28 51 42 100q15 49 17 95t-7 88q-10 42 -28 79q-35 68 -96 112q-61 45 -132.5 58.5t-147.5 -6.5q-75 -21 -139 -82z" />
    <glyph glyph-name="uniE909" unicode="&#xe909;" horiz-adv-x="896" 
d="M448 555q-44 0 -75.5 -31.5t-31.5 -75.5t31.5 -75.5t75.5 -31.5t75.5 31.5t31.5 75.5v0q0 44 -31.5 75.5t-75.5 31.5v0zM697 637q-8 21 -23.5 36.5t-36.5 23.5v0q-32 13 -93 13h-96h-96t-93 -12q-21 -9 -36.5 -24.5t-23.5 -36.5v0q-13 -32 -13 -93v-96v-96t13 -93
q8 -21 23.5 -36.5t36.5 -23.5v0q32 -13 93 -13h96h96t93 13q21 8 36.5 23.5t23.5 36.5v0q13 32 13 93v96v96t-13 93v0zM448 284q-68 0 -116 48t-48 116t48 116t116 48t116 -48t48 -116v0v0v0q0 -68 -48 -116t-116 -48v0v0v0zM619 581v0v0q-16 0 -27.5 11t-11.5 27t11.5 27
t27.5 11t27 -11t11 -27v0v0v0q0 -16 -11 -27t-27 -11v0v0zM800 896h-704q-40 0 -68 -28t-28 -68v0v-704q0 -40 28 -68t68 -28v0h704q40 0 68 28t28 68v0v704q0 40 -28 68t-68 28v0zM766 316q-2 -38 -13 -72t-39 -62t-62 -39t-72 -13q-20 -1 -56 -1q-36 -1 -76 -1t-76 1
q-36 0 -56 1q-38 2 -72 13t-62 39t-39 62t-13 72q-1 20 -1 56q-1 36 -1 76t1 76q0 36 1 56q2 38 13 72t39 62t62 39t72 13q20 1 56 1q36 1 76 1t76 -1q36 0 56 -1q39 -2 72.5 -13t61.5 -39t39 -62t13 -72q1 -20 1 -56q1 -36 1 -76t-1 -76q0 -36 -1 -56z" />
    <glyph glyph-name="uniE90A" unicode="&#xe90a;" horiz-adv-x="768" 
d="M345 -43q-109 158 -177 252q-67 95 -104.5 157t-50.5 107t-13 103q0 80 30 149q30 70 82.5 122.5t122.5 82.5q69 30 149 30t149 -30q70 -30 122.5 -82.5t82.5 -122.5q30 -69 30 -149q0 -58 -13 -103t-50.5 -107t-104.5 -157q-68 -94 -177 -252q-14 -21 -39 -21t-39 21z
M384 416q66 0 113 47t47 113t-47 113t-113 47t-113 -47t-47 -113t47 -113t113 -47z" />
    <glyph glyph-name="uniE90B" unicode="&#xe90b;" 
d="M732 252l-33 -50q-5 -7 -12 -13t-15 -8q-28 -8 -102 7.5t-188 129.5t-129.5 188t-7.5 102q2 8 8 15t13 12l50 33q27 18 33.5 50.5t-11.5 60.5l-94 140q-16 24 -43.5 32.5t-54.5 -3.5l-42 -18q-24 -10 -43 -28t-31 -41q-9 -20 -16 -40.5t-8 -42.5q-2 -34 4 -92
q7 -58 33.5 -132.5t81.5 -162.5q54 -88 148 -182t182 -148q88 -55 162.5 -81.5t132.5 -33.5q58 -6 92 -4q22 1 42.5 8t40.5 16q23 12 41 31t28 43l18 42q12 27 3.5 54.5t-32.5 43.5l-140 94q-28 18 -60.5 11.5t-50.5 -33.5v0z" />
    <glyph glyph-name="uniE90C" unicode="&#xe90c;" 
d="M1010 -50q-7 -6 -16 -10t-19 -4t-19 4t-15 10l-229 228q-56 -45 -127 -71t-149 -26q-92 0 -173 35q-80 34 -140 94t-95 141q-35 80 -35 172t35 172q35 81 95 141t140 95q81 34 173 34q91 0 172 -34q80 -35 140 -95t95 -141q35 -80 35 -172q0 -78 -26 -148.5t-71 -127.5
l1 1l228 -228q7 -7 10.5 -16t3.5 -19t-3.5 -19t-10.5 -16v0v0zM439 862q-71 0 -133 -26q-62 -27 -108.5 -73.5t-73.5 -108.5q-26 -62 -26 -133t26 -133q27 -62 73.5 -108.5t108.5 -72.5q62 -27 133 -27t133 27q62 26 108.5 72.5t72.5 108.5q27 62 27 133v0q0 71 -27 133
q-26 62 -72.5 108.5t-108.5 73.5q-62 26 -133 26v0z" />
    <glyph glyph-name="uniE90D" unicode="&#xe90d;" 
d="M811 -64h-598q-44 0 -83 17t-67.5 45.5t-45.5 67.5t-17 83v598q0 44 17 83t45.5 67.5t67.5 45.5t83 17h598q44 0 83 -17t67.5 -45.5t45.5 -67.5t17 -83v-598q0 -44 -17 -83t-45.5 -67.5t-67.5 -45.5t-83 -17zM694 156q6 -5 14.5 -6t16.5 2q8 2 13.5 8.5t7.5 14.5
q9 44 24 115q14 71 30 147t30 145q14 70 23 109q1 6 -1 12t-7 10q-4 4 -10 5t-12 -1q-45 -17 -129 -48t-178 -66.5t-184 -68.5q-90 -34 -146 -55q-7 -2 -11.5 -8.5t-3.5 -13.5q0 -8 4.5 -14t12.5 -8q50 -15 102.5 -31.5l52.5 -16.5l23.5 -70.5t39.5 -117.5q2 -6 6.5 -10.5
t10.5 -6.5q6 -1 12.5 0.5t10.5 5.5q26 25 57 54l31 29l58 -42.5t102 -72.5v0zM380 402l48 -157l11 100l30 27q31 28 75.5 68t94.5 85t89 81q3 2 3 5t-2 6q-1 2 -4.5 2.5t-5.5 -1.5q-46 -29 -105 -66q-58 -38 -110 -71t-88 -56l-36 -23v0z" />
    <glyph glyph-name="uniE90E" unicode="&#xe90e;" 
d="M704 768h128q27 0 45.5 -18.5t18.5 -45.5v-512q0 -27 -18.5 -45.5t-45.5 -18.5h-128q-27 0 -45.5 -18.5t-18.5 -45.5t18.5 -45.5t45.5 -18.5h128q79 0 135.5 56t56.5 136v512q0 79 -56 135.5t-136 56.5h-128q-27 0 -45.5 -18.5t-18.5 -45.5t18.5 -45.5t45.5 -18.5z
M685 403q19 19 19 45.5t-19 44.5l-256 256q-19 19 -45.5 19t-44.5 -19q-19 -18 -19 -44.5t19 -45.5l146 -147h-421q-27 0 -45.5 -18.5t-18.5 -45.5t18.5 -45.5t45.5 -18.5h421l-146 -147q-19 -19 -19 -45.5t19 -44.5q18 -19 44.5 -19t45.5 19l256 256v0z" />
    <glyph glyph-name="uniE90F" unicode="&#xe90f;" horiz-adv-x="896" 
d="M63 833q-24 -24 -36 -55q-13 -32 -19 -76t-7 -102t-1 -134v-36q0 -76 1 -134t7 -102t19 -76q12 -31 36 -55t55 -36q32 -13 76 -19t102 -7t134 -1h36q76 0 134 1t102 7t76 19q31 12 55 36t36 55q13 32 19 76t7 102t1 134v36q0 76 -1 134t-7 102t-19 76q-12 31 -36 55
t-55 36q-32 13 -76 19t-102 7t-134 1h-36q-76 0 -134 -1t-102 -7t-76 -19q-31 -12 -55 -36v0zM151 623h102q3 -128 48.5 -187.5t90.5 -70.5v258h96v-147q45 5 86 48.5t56 98.5h97q-6 -28 -18 -55t-29 -51t-38 -44t-47 -35q28 -14 52.5 -33.5t44.5 -44.5q20 -24 34.5 -51.5
t22.5 -57.5h-106q-7 26 -22 49t-35 40q-21 18 -46 29t-52 15v-133h-11q-77 0 -137 25q-59 26 -100.5 74t-64.5 117q-22 69 -24 156v0z" />
    <glyph glyph-name="uniE910" unicode="&#xe910;" 
d="M996 949q15 -11 22.5 -27.5t4.5 -35.5l-128 -832q-2 -14 -10.5 -26t-21.5 -20q-13 -7 -27.5 -7.5t-28.5 4.5l-252 105l-81 -149q-7 -14 -22.5 -21t-31.5 -3t-26 17t-10 30v192q0 8 2.5 15.5t7.5 13.5l331 426q4 10 -6 17.5t-20 -1.5l-422 -381q-14 -13 -32.5 -16t-35.5 4
l-170 71q-17 7 -27.5 22t-11.5 33t8 34t24 26l896 512q16 9 34.5 8t33.5 -11v0z" />
    <glyph glyph-name="uniE911" unicode="&#xe911;" horiz-adv-x="992" 
d="M496 944q-103 0 -193 -39t-157.5 -106.5t-106.5 -157.5t-39 -193t39 -193t106.5 -157.5t157.5 -106.5t193 -39t193 39t157.5 106.5t106.5 157.5t39 193t-39 193t-106.5 157.5t-157.5 106.5t-193 39zM432 842v-22q0 -18 -15 -27.5t-31 -1.5l-48 24q22 10 45.5 16.5
t48.5 10.5zM496 103v-55q-83 0 -156 31q-72 32 -126.5 86.5t-86.5 126.5q-31 73 -31 156q0 44 9 85t26 78q15 -22 35 -51.5t34 -50.5q8 -11 17 -21.5t20 -19.5l1 -2q14 -12 30 -23t33 -20q21 -11 48.5 -26t49.5 -26q15 -9 24 -24t9 -32v-64q0 -13 5 -25t14 -21
q22 -22 35 -52.5t10 -49.5zM581 57l35 94q3 8 5.5 16.5t4.5 17.5q1 6 4.5 11.5t7.5 9.5l23 23q13 13 20 30t7 36q0 12 -4.5 23.5t-13.5 19.5l-27 28q-9 9 -20.5 13.5t-24.5 4.5h-134q-14 7 -31 35.5t-33 28.5t-31.5 4t-29.5 11l-22 11q-6 3 -9.5 8.5t-3.5 12.5q0 8 4.5 14
t11.5 9l63 21q8 2 16 0.5t15 -7.5l18 -16q3 -2 5.5 -3t5.5 -1h11q9 0 13.5 7.5t0.5 15.5l-31 63q-2 4 -1 9.5t4 8.5l20 20q2 2 5 3t6 1h18q4 0 7 1.5t5 3.5l16 16q4 4 4 11t-4 11l-10 10q-4 4 -4 11t4 11l30 30q10 10 10 23t-10 23l-56 56q4 0 7.5 0.5t7.5 0.5q59 0 113 -16
q53 -16 99.5 -45.5t83.5 -70.5q37 -40 61 -89l-26 -13q-5 -3 -10 -7.5t-8 -9.5l-39 -58q-8 -13 -8 -27.5t8 -26.5l36 -54q5 -7 12 -12t16 -8l58 -14q-8 -63 -34 -119q-27 -56 -68 -100.5t-94 -75.5t-115 -45v0z" />
    <glyph glyph-name="uniE912" unicode="&#xe912;" 
d="M311 956q-3 -2 -6.5 -6.5t-6.5 -11.5q-4 -10 -5.5 -16t-2.5 -18q0 -11 0.5 -17.5t2.5 -12.5q3 -9 3 -11t-3 -4q-5 -5 -10.5 -14.5t-9.5 -19.5q-6 -14 -6 -33t5 -33q4 -11 10 -20.5t13 -16.5l7 -7l-5 -8q-10 -16 -15 -37.5t-4 -50.5l1 -25l-12 -5q-60 -22 -90.5 -66.5
t-24.5 -98.5q1 -7 1.5 -12.5t0.5 -6.5t-3 -3.5t-7 -5.5q-10 -6 -20.5 -17.5t-14.5 -21.5q-5 -10 -6 -22t1 -23q1 -4 19 -49t40.5 -99.5t42.5 -101.5q20 -48 25 -58q14 -28 30.5 -43.5t39.5 -21.5q6 -2 70 -2q65 -1 141.5 -1t140.5 1q65 0 70 2q12 3 21.5 8.5t18.5 13.5
q10 10 16.5 19t14.5 25q4 10 24 57l42.5 102t40.5 99t19 49q2 11 1 23.5t-6 21.5q-4 10 -14.5 21t-19.5 17l-9 6v25q0 10 -0.5 21t-1.5 16q-8 42 -33.5 79.5t-63.5 60.5l-15 9l6 12q15 30 9.5 61.5t-30.5 55.5q-7 7 -14 12.5t-14 8.5q-9 5 -11 7t-2 7q0 16 -8.5 37t-23.5 40
q-23 31 -64.5 63t-66.5 39q-14 3 -24.5 -0.5t-15.5 -13.5q-3 -6 -2.5 -14t2.5 -31q1 -11 -2 -22.5t-11 -23.5q-6 -9 -14.5 -18.5t-10.5 -9.5q-1 0 -3 3.5t-4 7.5q-2 5 -7 12t-10 13q-11 12 -25 19.5t-30 10.5q-10 2 -23 1.5t-20 -3.5q-6 -2 -7.5 0.5t-1.5 13.5q0 7 1.5 12.5
t4.5 12.5q6 12 5.5 18t-7.5 12q-6 5 -11.5 5t-11.5 -4v0zM559 900q79 -52 97.5 -103.5t-28.5 -89.5q-24 -20 -67 -36.5t-119 -35.5q-80 -20 -100.5 -24.5t-21.5 -2.5q-2 4 -1.5 23.5t2.5 30.5q3 12 8 21t15 19q10 11 23.5 19.5t45.5 25.5q51 25 75 45t39 50q8 15 10.5 27.5
t1.5 27.5v10.5t1 4.5l6 -3.5t13 -8.5zM391 843q12 -6 20 -16.5t12 -24.5q0 -4 -4.5 -7t-29.5 -16q-14 -7 -28 -14.5t-19 -11.5l-13 -9l-6 6q-9 9 -13.5 24.5t-1.5 29.5q7 28 32 40t51 -1v0zM715 713q15 -15 18.5 -33.5t-4.5 -36.5q-3 -6 -8 -12.5t-14 -15.5
q-20 -20 -54 -40.5t-87 -45.5q-16 -7 -28 -13.5t-13 -8.5q-5 -6 -5 -12.5t6 -12.5q7 -9 21.5 -4.5t71.5 33.5q34 17 58.5 32t43.5 30l9 8l11 -6q28 -15 51 -41.5t33 -55.5q4 -12 6.5 -29.5t1.5 -25.5l-1 -8l-21 1q-18 0 -33 -2.5t-27 -8.5q-10 -4 -22 -13.5t-17 -16.5
q-2 -3 -4 -5l-2 -2l-2.5 2.5t-5.5 6.5q-32 40 -83 42.5t-88 -34.5l-15 -15l-14 15q-37 37 -88.5 34.5t-83.5 -42.5q-3 -4 -5.5 -6.5l-2.5 -2.5l-2 2t-4 5q-4 6 -16 15.5t-21 13.5q-11 6 -26.5 9t-33.5 3l-22 -1l-2 13q-3 28 8 53t35 44q22 18 54.5 29t137.5 36
q69 16 116.5 31.5t75.5 30.5q24 13 42.5 30t27.5 34l6 12l6 -3q3 -2 7.5 -5.5t7.5 -6.5v0zM442 375q11 -4 20 -11t15 -15q10 -14 12 -25.5t3 -58.5l1 -55l6 -5q5 -5 13 -5t13 5l6 5l1 55q1 47 3 58.5t12 24.5q11 16 27 23.5t35 7.5q22 0 39.5 -11t27.5 -31q8 -17 5 -38
t-34 -158l-38 -165h-77v34q0 28 -1.5 36t-8.5 11q-5 3 -10 3t-10 -3q-7 -3 -8.5 -11t-1.5 -36v-34h-77l-38 165q-31 135 -34.5 156.5t4.5 37.5q4 10 12.5 19.5t17.5 14.5q14 8 32.5 9.5t32.5 -3.5zM234 375q17 -2 32.5 -13t23.5 -26q2 -3 5 -13.5t5 -21.5t14 -62
q11 -51 24 -108t24 -103t11 -48q1 -3 -3.5 -3.5t-24.5 -0.5q-13 0 -23.5 0.5t-14.5 1.5q-10 3 -20 14t-19 28q-5 9 -25 56t-42 100.5t-40 97.5q-18 45 -18 48q-2 9 2 17.5t11 15.5q12 10 30 16.5t31 5.5q3 0 8 -1t9 -1v0zM822 376q27 -4 44.5 -20t14.5 -34q0 -3 -18 -48
q-18 -44 -40 -97.5t-42 -100.5t-25 -56q-9 -17 -19 -28t-20 -14q-4 -1 -14.5 -1.5t-23.5 -0.5q-20 0 -24.5 0.5t-3.5 3.5q0 1 11 50q12 49 25.5 109.5t25.5 112.5q12 53 14 62q5 25 20.5 40.5t39.5 20.5q11 3 17 3t18 -2v0zM499 143q-6 -5 -7 -10.5t3 -12.5q7 -13 22 -9
t15 20q0 6 -7 12.5t-13 6.5q-3 0 -6 -1.5t-7 -5.5z" />
    <glyph glyph-name="uniE913" unicode="&#xe913;" horiz-adv-x="896" 
d="M448 448q53 0 100 20q46 20 81 55t55 81q20 47 20 100t-20 100q-20 46 -55 81t-81 55q-47 20 -100 20t-100 -20q-46 -20 -81 -55t-55 -81q-20 -47 -20 -100t20 -100q20 -46 55 -81t81 -55q47 -20 100 -20zM357 352q-74 0 -139 -28t-113.5 -76.5t-76.5 -113.5t-28 -139
q0 -24 17.5 -41.5t41.5 -17.5h778q24 0 41.5 17.5t17.5 41.5q0 74 -28 139t-76.5 113.5t-113.5 76.5t-139 28h-182v0z" />
  </font>
</defs>
</svg>
